<?xml version="1.0" standalone="no"?><!DOCTYPE svg PUBLIC "-//W3C//DTD SVG 1.1//EN" "http://www.w3.org/Graphics/SVG/1.1/DTD/svg11.dtd"><svg t="1732372856980" class="icon" viewBox="0 0 1024 1024" version="1.1" xmlns="http://www.w3.org/2000/svg" p-id="7856" xmlns:xlink="http://www.w3.org/1999/xlink" width="200" height="200"><path d="M896 800v128a32 32 0 0 1-32 32H160a32 32 0 0 1-32-32v-128h768z m32-480a32 32 0 0 1 32 32v352a32 32 0 0 1-32 32H96a32 32 0 0 1-32-32V352a32 32 0 0 1 32-32h832z m-595.2 80H176v256h156.8a35.2 35.2 0 0 0 35.2-35.2v-185.6a35.2 35.2 0 0 0-35.2-35.2z m240 0h-121.6a35.2 35.2 0 0 0-35.2 35.2v185.6a35.2 35.2 0 0 0 35.2 35.2h121.6a35.2 35.2 0 0 0 35.2-35.2v-185.6a35.2 35.2 0 0 0-35.2-35.2z m240 0h-121.6a35.2 35.2 0 0 0-35.2 35.2v185.6a35.2 35.2 0 0 0 35.2 35.2h121.6a35.2 35.2 0 0 0 35.2-35.2v-60.8h-64v32h-64v-128h64v32h64v-60.8a35.2 35.2 0 0 0-35.2-35.2z m-508.8 64v128h-64v-128h64z m240 0v128h-64v-128h64zM642.752 64a32 32 0 0 1 22.624 9.376L848 256H128V96a32 32 0 0 1 28.256-31.776L160 64h482.752z" p-id="7857" fill="#3b64fc"></path></svg>