<?xml version="1.0" standalone="no"?><!DOCTYPE svg PUBLIC "-//W3C//DTD SVG 1.1//EN" "http://www.w3.org/Graphics/SVG/1.1/DTD/svg11.dtd"><svg t="1732373072748" class="icon" viewBox="0 0 1024 1024" version="1.1" xmlns="http://www.w3.org/2000/svg" p-id="15967" width="200" height="200" xmlns:xlink="http://www.w3.org/1999/xlink"><path d="M896 800v128a32 32 0 0 1-32 32H160a32 32 0 0 1-32-32v-128h768z m32-480a32 32 0 0 1 32 32v352a32 32 0 0 1-32 32H96a32 32 0 0 1-32-32V352a32 32 0 0 1 32-32h832z m-560 80h-192v64h64v192h64v-192h64v-64z m480 0h-192v64h64v192h64v-192h64v-64z m-370.528 0h-73.216l71.136 128-71.104 128h73.184L512 593.824l34.464 62.112h73.248L548.608 528l71.136-128h-73.248L512 462.08 477.44 400zM642.752 64a32 32 0 0 1 22.624 9.376L848 256H128V96a32 32 0 0 1 28.256-31.776L160 64h482.752z" p-id="15968" fill="#cdcdcd"></path></svg>