<?xml version="1.0" standalone="no"?><!DOCTYPE svg PUBLIC "-//W3C//DTD SVG 1.1//EN" "http://www.w3.org/Graphics/SVG/1.1/DTD/svg11.dtd"><svg t="1732372769012" class="icon" viewBox="0 0 1024 1024" version="1.1" xmlns="http://www.w3.org/2000/svg" p-id="7302" id="mx_n_1732372769013" xmlns:xlink="http://www.w3.org/1999/xlink" width="200" height="200"><path d="M896 800v128a32 32 0 0 1-32 32H160a32 32 0 0 1-32-32v-128h768z m32-480a32 32 0 0 1 32 32v352a32 32 0 0 1-32 32H96a32 32 0 0 1-32-32V352a32 32 0 0 1 32-32h832z m-432 80h-64v256h192v-64h-128v-192z m352 0h-156.8a35.2 35.2 0 0 0-35.2 35.2v89.6l0.192 3.84a35.2 35.2 0 0 0 35.008 31.36h92.8v32h-128v64h156.8a35.2 35.2 0 0 0 35.2-35.2v-89.6l-0.192-3.84a35.2 35.2 0 0 0-35.008-31.36h-92.8v-32h128v-64z m-594.528 0H180.256l71.136 128-71.104 128h73.184L288 593.824l34.464 62.112h73.248L324.608 528l71.136-128h-73.248L288 462.08 253.44 400zM642.752 64a32 32 0 0 1 22.624 9.376L848 256H128V96a32 32 0 0 1 28.256-31.776L160 64h482.752z" p-id="7303" fill="#109968"></path></svg>