<?xml version="1.0" standalone="no"?><!DOCTYPE svg PUBLIC "-//W3C//DTD SVG 1.1//EN" "http://www.w3.org/Graphics/SVG/1.1/DTD/svg11.dtd"><svg t="1732372802641" class="icon" viewBox="0 0 1024 1024" version="1.1" xmlns="http://www.w3.org/2000/svg" p-id="7430" xmlns:xlink="http://www.w3.org/1999/xlink" width="200" height="200"><path d="M896 800v128a32 32 0 0 1-32 32H160a32 32 0 0 1-32-32v-128h768z m32-480a32 32 0 0 1 32 32v352a32 32 0 0 1-32 32H96a32 32 0 0 1-32-32V352a32 32 0 0 1 32-32h832z m-560 80h-192v64h114.72L176 578.752V656h192v-64H253.248l114.752-114.752V400z m224 0h-160v64H480v128h-48v64h160v-64H544v-128h48v-64z m220.8 0h-156.8v256h64v-64h92.8a35.2 35.2 0 0 0 35.2-35.2v-121.6a35.2 35.2 0 0 0-35.2-35.2z m-28.8 64v64h-64v-64h64zM642.752 64a32 32 0 0 1 22.624 9.376L848 256H128V96a32 32 0 0 1 28.256-31.776L160 64h482.752z" p-id="7431" fill="#a4579d"></path></svg>